<?xml version="1.0" encoding="UTF-8" standalone="no"?>
<svg
   height="32"
   aria-hidden="true"
   viewBox="0 0 16 16"
   version="1.1"
   width="32"
   data-view-component="true"
   class="octicon octicon-mark-github v-align-middle"
   id="svg4"
   sodipodi:docname="github.svg"
   inkscape:version="1.1.1 (3bf5ae0d25, 2021-09-20, custom)"
   xmlns:inkscape="http://www.inkscape.org/namespaces/inkscape"
   xmlns:sodipodi="http://sodipodi.sourceforge.net/DTD/sodipodi-0.dtd"
   xmlns="http://www.w3.org/2000/svg"
   xmlns:svg="http://www.w3.org/2000/svg">
  <defs
     id="defs8" />
  <sodipodi:namedview
     id="namedview6"
     pagecolor="#ffffff"
     bordercolor="#666666"
     borderopacity="1.0"
     inkscape:pageshadow="2"
     inkscape:pageopacity="0.0"
     inkscape:pagecheckerboard="0"
     showgrid="false"
     inkscape:zoom="22.71875"
     inkscape:cx="16"
     inkscape:cy="15.933975"
     inkscape:window-width="1920"
     inkscape:window-height="986"
     inkscape:window-x="0"
     inkscape:window-y="32"
     inkscape:window-maximized="1"
     inkscape:current-layer="svg4" />
  <path
     fill-rule="evenodd"
     d="M8 0C3.58 0 0 3.58 0 8c0 3.54 2.29 6.53 5.47 7.59.4.07.55-.17.55-.38 0-.19-.01-.82-.01-1.49-2.01.37-2.53-.49-2.69-.94-.09-.23-.48-.94-.82-1.13-.28-.15-.68-.52-.01-.53.63-.01 1.08.58 1.23.82.72 1.21 1.87.87 2.33.66.07-.52.28-.87.51-1.07-1.78-.2-3.64-.89-3.64-3.95 0-.87.31-1.59.82-2.15-.08-.2-.36-1.02.08-2.12 0 0 .67-.21 2.2.82.64-.18 1.32-.27 2-.27.68 0 1.36.09 2 .27 1.53-1.04 2.2-.82 2.2-.82.44 1.1.16 1.92.08 2.12.51.56.82 1.27.82 2.15 0 3.07-1.87 3.75-3.65 3.95.29.25.54.73.54 1.48 0 1.07-.01 1.93-.01 2.2 0 .21.15.46.55.38A8.013 8.013 0 0016 8c0-4.42-3.58-8-8-8z"
     id="path2" />
  <path
     style="opacity:0.999;fill:#ffffff;fill-rule:evenodd;stroke-width:0.0660248"
     d="m 20.60513,31.164542 c -0.175183,-0.04248 -0.338899,-0.157238 -0.464859,-0.325858 -0.08882,-0.118906 -0.09126,-0.181061 -0.114492,-2.924378 l -0.02374,-2.802889 -0.118128,-0.434483 c -0.145401,-0.534797 -0.364823,-0.987325 -0.650837,-1.342264 -0.119672,-0.148511 -0.196336,-0.270021 -0.170365,-0.270021 0.189427,0 1.354771,-0.209907 1.823095,-0.328384 2.4247,-0.613401 3.963451,-1.874186 4.772222,-3.910151 0.544589,-1.370924 0.751608,-3.622532 0.463143,-5.037298 -0.19599,-0.961224 -0.643782,-1.898759 -1.279939,-2.679789 l -0.198426,-0.243613 0.111607,-0.42583 c 0.289724,-1.1054199 0.232022,-2.2617872 -0.174219,-3.4913923 -0.1233,-0.3732023 -0.14499,-0.3892102 -0.52517,-0.3875957 -0.329585,0.0014 -0.849831,0.1051638 -1.331254,0.2655203 -0.521865,0.1738278 -1.68355,0.7549791 -2.263122,1.1321631 L 20.035457,8.23499 19.690356,8.1476336 C 18.451362,7.8340032 17.521415,7.7268529 16.044017,7.7274951 14.590258,7.7281246 13.829802,7.8109218 12.591875,8.103349 L 12.044823,8.2325753 11.667529,7.995803 C 10.712621,7.3965482 10.081514,7.08448 9.2879569,6.8191573 8.7414677,6.6364408 8.050847,6.5239298 7.7848869,6.5742878 7.6385395,6.6019979 7.616769,6.6262396 7.5313202,6.856633 7.3636644,7.3086798 7.2169437,7.9782109 7.1651319,8.5276628 7.1031175,9.1853099 7.1622708,9.869319 7.3326569,10.464858 l 0.1141172,0.398862 -0.2634163,0.323298 c -0.821473,1.008218 -1.2702292,2.222475 -1.355796,3.668553 -0.036433,0.615714 0.045941,1.722562 0.1843077,2.47652 0.5706238,3.109321 2.4509209,4.90039 5.8285705,5.55198 0.416457,0.08034 1.080192,0.180578 1.19571,0.180578 0.0247,0 -0.04666,0.101852 -0.158587,0.226338 -0.361296,0.401849 -0.627731,0.979307 -0.746147,1.617164 l -0.05215,0.280915 -0.21845,0.08671 C 10.913809,25.65169 9.8565467,25.686367 9.0918981,25.366595 8.4792979,25.110408 8.0095018,24.688071 7.5193582,23.952914 7.0799718,23.293887 6.516848,22.741221 6.0432101,22.504182 5.6015313,22.283136 5.277859,22.211625 4.8432722,22.23907 c -0.3825695,0.02416 -0.5655205,0.09552 -0.6003166,0.234162 -0.052563,0.20943 0.1778378,0.475175 0.7319946,0.844285 0.5688821,0.378918 1.058641,1.050995 1.6321448,2.23973 0.3406737,0.706133 0.3758495,0.75998 0.7160297,1.096087 0.5665559,0.559771 1.2265618,0.838968 2.2504654,0.951996 0.5095039,0.05625 1.4015449,0.02383 1.9807429,-0.07197 0.217882,-0.03604 0.411701,-0.06587 0.43071,-0.06629 0.01901,-4.4e-4 0.02891,0.728724 0.02201,1.620327 l -0.01255,1.621095 -0.126848,0.166244 C 11.534301,31.311614 11.076496,31.269242 9.6850901,30.672726 7.0242306,29.531978 4.657122,27.619519 2.9683888,25.246098 2.2593277,24.249553 1.434459,22.692209 1.0202789,21.568088 -0.49223821,17.462983 -0.26952033,12.895893 1.6321136,9.0217041 3.2389601,5.7480843 5.6944387,3.2846382 8.957359,1.67269 c 2.473071,-1.22174688 4.961477,-1.74029071 7.790922,-1.62350316 2.903365,0.11983867 5.697524,1.04058156 8.165062,2.69058496 3.5722,2.3886736 6.05736,6.2004001 6.820387,10.4610742 0.304795,1.701952 0.305263,3.816111 0.0012,5.566978 -0.960767,5.532894 -4.920638,10.296547 -10.150546,12.210924 -0.535134,0.195882 -0.760968,0.238728 -0.979286,0.185794 z"
     id="path862"
     transform="scale(0.5)" />
</svg>
