<?xml version="1.0" encoding="UTF-8" standalone="no"?>
<svg
   id="Layer_1"
   viewBox="0 0 552.8 205.3"
   version="1.1"
   sodipodi:docname="rs_school_js.svg"
   inkscape:version="1.1.1 (3bf5ae0d25, 2021-09-20, custom)"
   xmlns:inkscape="http://www.inkscape.org/namespaces/inkscape"
   xmlns:sodipodi="http://sodipodi.sourceforge.net/DTD/sodipodi-0.dtd"
   xmlns:xlink="http://www.w3.org/1999/xlink"
   xmlns="http://www.w3.org/2000/svg"
   xmlns:svg="http://www.w3.org/2000/svg">
  <sodipodi:namedview
     id="namedview81"
     pagecolor="#ffffff"
     bordercolor="#666666"
     borderopacity="1.0"
     inkscape:pageshadow="2"
     inkscape:pageopacity="0.0"
     inkscape:pagecheckerboard="0"
     showgrid="false"
     inkscape:zoom="2.3661361"
     inkscape:cx="276.61131"
     inkscape:cy="102.27645"
     inkscape:window-width="1920"
     inkscape:window-height="986"
     inkscape:window-x="0"
     inkscape:window-y="32"
     inkscape:window-maximized="1"
     inkscape:current-layer="Layer_1" />
  <style
     id="style2">.st0{fill:#fff}.st1{clip-path:url(#SVGID_2_)}.st2{clip-path:url(#SVGID_4_)}.st3{clip-path:url(#SVGID_6_)}.st4{clip-path:url(#SVGID_8_)}.st5{fill:#fff;stroke:#000;stroke-width:4;stroke-miterlimit:10}.st6{clip-path:url(#SVGID_8_)}.st6,.st7{fill:none;stroke:#000;stroke-width:4;stroke-miterlimit:10}.st8,.st9{clip-path:url(#SVGID_10_)}.st9{fill:none;stroke:#000;stroke-width:4;stroke-miterlimit:10}</style>
  <title
     id="title4">rs_school_js</title>
  <path
     d="M285.4 68l26.3-1.7c.6 4.3 1.7 7.5 3.5 9.8 2.9 3.6 6.9 5.4 12.2 5.4 3.9 0 7-.9 9.1-2.8 2-1.5 3.2-3.9 3.2-6.4 0-2.4-1.1-4.7-3-6.2-2-1.8-6.7-3.6-14.1-5.2-12.1-2.7-20.8-6.3-25.9-10.9-5.1-4.3-8-10.6-7.8-17.3 0-4.6 1.4-9.2 4-13 3-4.3 7.1-7.7 12-9.6 5.3-2.3 12.7-3.5 22-3.5 11.4 0 20.1 2.1 26.1 6.4 6 4.2 9.6 11 10.7 20.3l-26 1.5c-.7-4-2.1-6.9-4.4-8.8s-5.3-2.8-9.2-2.8c-3.2 0-5.6.7-7.2 2-1.5 1.2-2.5 3-2.4 5 0 1.5.8 2.9 2 3.8 1.3 1.2 4.4 2.3 9.3 3.3 12.1 2.6 20.7 5.2 26 7.9 5.3 2.7 9.1 6 11.4 9.9 2.4 4 3.6 8.6 3.5 13.3 0 5.6-1.6 11.2-4.8 15.9-3.3 4.9-7.9 8.7-13.3 11-5.7 2.5-12.9 3.8-21.5 3.8-15.2 0-25.7-2.9-31.6-8.8S286.1 77 285.4 68zM6.3 97.6V8.2h46.1c8.5 0 15.1.7 19.6 2.2 4.4 1.4 8.3 4.3 10.9 8.2 2.9 4.3 4.3 9.3 4.2 14.5.3 8.8-4.2 17.2-11.9 21.6-3 1.7-6.3 2.9-9.7 3.5 2.5.7 5 1.9 7.2 3.3 1.7 1.4 3.1 3 4.4 4.7 1.5 1.7 2.8 3.6 3.9 5.6l13.4 25.9H63L48.2 70.2c-1.9-3.5-3.5-5.8-5-6.9-2-1.4-4.4-2.1-6.8-2.1H34v36.3H6.3zM34 44.4h11.7c2.5-.2 4.9-.6 7.3-1.2 1.8-.3 3.4-1.3 4.5-2.8 2.7-3.6 2.3-8.7-1-11.8-1.8-1.5-5.3-2.3-10.3-2.3H34v18.1zM0 174.2l26.3-1.7c.6 4.3 1.7 7.5 3.5 9.8 2.8 3.6 6.9 5.5 12.2 5.5 3.9 0 7-.9 9.1-2.8 2-1.6 3.2-3.9 3.2-6.4 0-2.4-1.1-4.7-3-6.2-2-1.8-6.7-3.6-14.2-5.2-12.1-2.7-20.8-6.3-25.9-10.9-5.1-4.3-8-10.6-7.8-17.3 0-4.6 1.4-9.2 4-13 3-4.3 7.1-7.7 12-9.6 5.3-2.3 12.7-3.5 22-3.5 11.4 0 20.1 2.1 26.1 6.4s9.5 11 10.6 20.3l-26 1.5c-.7-4-2.1-6.9-4.4-8.8-2.2-1.9-5.3-2.8-9.2-2.7-3.2 0-5.6.7-7.2 2.1-1.6 1.2-2.5 3-2.4 5 0 1.5.8 2.9 2 3.8 1.3 1.2 4.4 2.3 9.3 3.3 12.1 2.6 20.7 5.2 26 7.9 5.3 2.7 9.1 6 11.4 9.9 2.4 4 3.6 8.6 3.6 13.2 0 5.6-1.7 11.1-4.8 15.8-3.3 4.9-7.9 8.7-13.3 11-5.7 2.5-12.9 3.8-21.5 3.8-15.2 0-25.7-2.9-31.6-8.8-5.9-6-9.2-13.4-10-22.4z"
     id="path6" />
  <path
     d="M133 167.2l24.2 7.3c-1.3 6.1-4 11.9-7.7 17-3.4 4.5-7.9 8-13 10.3-5.2 2.3-11.8 3.5-19.8 3.5-9.7 0-17.7-1.4-23.8-4.2-6.2-2.8-11.5-7.8-16-14.9-4.5-7.1-6.7-16.2-6.7-27.3 0-14.8 3.9-26.2 11.8-34.1s19-11.9 33.4-11.9c11.3 0 20.1 2.3 26.6 6.8 6.4 4.6 11.2 11.6 14.4 21l-24.4 5.4c-.6-2.1-1.5-4.2-2.7-6-1.5-2.1-3.4-3.7-5.7-4.9-2.3-1.2-4.9-1.7-7.5-1.7-6.3 0-11.1 2.5-14.4 7.6-2.5 3.7-3.8 9.6-3.8 17.6 0 9.9 1.5 16.7 4.5 20.4 3 3.7 7.2 5.5 12.7 5.5 5.3 0 9.3-1.5 12-4.4 2.7-3.1 4.7-7.4 5.9-13zm56.5-52.8h27.6v31.3h30.2v-31.3h27.8v89.4h-27.8v-36.2h-30.2v36.2h-27.6v-89.4z"
     id="path8" />
  <path
     d="M271.3 159.1c0-14.6 4.1-26 12.2-34.1 8.1-8.1 19.5-12.2 34-12.2 14.9 0 26.3 4 34.4 12S364 144 364 158.4c0 10.5-1.8 19-5.3 25.7-3.4 6.6-8.7 12-15.2 15.6-6.7 3.7-15 5.6-24.9 5.6-10.1 0-18.4-1.6-25-4.8-6.8-3.4-12.4-8.7-16.1-15.2-4.1-7-6.2-15.7-6.2-26.2zm27.6.1c0 9 1.7 15.5 5 19.5 3.3 3.9 7.9 5.9 13.7 5.9 5.9 0 10.5-1.9 13.8-5.8s4.9-10.8 4.9-20.8c0-8.4-1.7-14.6-5.1-18.4-3.4-3.9-8-5.8-13.8-5.8-5.1-.2-10 2-13.4 5.9-3.4 3.9-5.1 10.4-5.1 19.5zm93.4-.1c0-14.6 4.1-26 12.2-34.1 8.1-8.1 19.5-12.2 34-12.2 14.9 0 26.4 4 34.4 12S485 144 485 158.4c0 10.5-1.8 19-5.3 25.7-3.4 6.6-8.7 12-15.2 15.6-6.7 3.7-15 5.6-24.9 5.6-10.1 0-18.4-1.6-25-4.8-6.8-3.4-12.4-8.7-16.1-15.2-4.1-7-6.2-15.7-6.2-26.2zm27.6.1c0 9 1.7 15.5 5 19.5 3.3 3.9 7.9 5.9 13.7 5.9 5.9 0 10.5-1.9 13.8-5.8 3.3-3.9 4.9-10.8 4.9-20.8 0-8.4-1.7-14.6-5.1-18.4-3.4-3.9-8-5.8-13.8-5.8-5.1-.2-10.1 2-13.4 5.9-3.4 3.9-5.1 10.4-5.1 19.5z"
     id="path10" />
  <path
     d="M482.1 114.4h27.6v67.4h43.1v22H482v-89.4z"
     id="path12" />
  <ellipse
     transform="rotate(-37.001 420.46 67.88)"
     class="st0"
     cx="420.5"
     cy="67.9"
     rx="63"
     ry="51.8"
     id="ellipse14" />
  <defs
     id="defs17">
    <ellipse
       id="SVGID_1_"
       transform="rotate(-37.001 420.46 67.88)"
       cx="420.5"
       cy="67.9"
       rx="63"
       ry="51.8" />
  </defs>
  <clipPath
     id="SVGID_2_">
    <use
       xlink:href="#SVGID_1_"
       overflow="visible"
       id="use19" />
  </clipPath>
  <g
     class="st1"
     clip-path="url(#SVGID_2_)"
     id="g78">
    <path
       transform="rotate(-37.001 420.82 68.353)"
       class="st0"
       d="M330.9-14.2h179.8v165.1H330.9z"
       id="path22" />
    <g
       id="Layer_2_1_">
      <defs
         id="defs25">
        <path
           id="SVGID_3_"
           transform="rotate(-37.001 420.82 68.353)"
           d="M330.9-14.2h179.8v165.1H330.9z" />
      </defs>
      <clipPath
         id="SVGID_4_">
        <use
           xlink:href="#SVGID_3_"
           overflow="visible"
           id="use27" />
      </clipPath>
      <g
         id="Layer_1-2"
         class="st2"
         clip-path="url(#SVGID_4_)">
        <ellipse
           transform="rotate(-37.001 420.46 67.88)"
           class="st0"
           cx="420.5"
           cy="67.9"
           rx="63"
           ry="51.8"
           id="ellipse30" />
        <defs
           id="defs33">
          <ellipse
             id="SVGID_5_"
             transform="rotate(-37.001 420.46 67.88)"
             cx="420.5"
             cy="67.9"
             rx="63"
             ry="51.8" />
        </defs>
        <clipPath
           id="SVGID_6_">
          <use
             xlink:href="#SVGID_5_"
             overflow="visible"
             id="use35" />
        </clipPath>
        <g
           class="st3"
           clip-path="url(#SVGID_6_)"
           id="g70">
          <path
             transform="rotate(-37 420.799 68.802)"
             class="st0"
             d="M357.8 17h125.9v103.7H357.8z"
             id="path38" />
          <defs
             id="defs41">
            <path
               id="SVGID_7_"
               transform="rotate(-37 420.799 68.802)"
               d="M357.8 17h125.9v103.7H357.8z" />
          </defs>
          <clipPath
             id="SVGID_8_">
            <use
               xlink:href="#SVGID_7_"
               overflow="visible"
               id="use43" />
          </clipPath>
          <g
             class="st4"
             clip-path="url(#SVGID_8_)"
             id="g48">
            <ellipse
               transform="rotate(-37.001 420.46 67.88)"
               class="st5"
               cx="420.5"
               cy="67.9"
               rx="63"
               ry="51.8"
               id="ellipse46" />
          </g>
          <path
             transform="rotate(-37 420.799 68.802)"
             class="st6"
             d="M357.8 17h125.9v103.7H357.8z"
             clip-path="url(#SVGID_8_)"
             id="path50" />
          <ellipse
             transform="rotate(-37.001 420.46 67.88)"
             class="st7"
             cx="420.5"
             cy="67.9"
             rx="63"
             ry="51.8"
             id="ellipse52" />
          <path
             transform="rotate(-37 420.799 68.802)"
             class="st0"
             d="M357.8 17h125.9v103.7H357.8z"
             id="path54" />
          <defs
             id="defs57">
            <path
               id="SVGID_9_"
               transform="rotate(-37 420.799 68.802)"
               d="M357.8 17h125.9v103.7H357.8z" />
          </defs>
          <clipPath
             id="SVGID_10_">
            <use
               xlink:href="#SVGID_9_"
               overflow="visible"
               id="use59" />
          </clipPath>
          <g
             class="st8"
             clip-path="url(#SVGID_10_)"
             id="g64">
            <ellipse
               transform="rotate(-37.001 420.46 67.88)"
               class="st5"
               cx="420.5"
               cy="67.9"
               rx="63"
               ry="51.8"
               id="ellipse62" />
          </g>
          <path
             transform="rotate(-37 420.799 68.802)"
             class="st9"
             d="M357.8 17h125.9v103.7H357.8z"
             clip-path="url(#SVGID_10_)"
             id="path66" />
          <path
             transform="rotate(-37.001 420.82 68.353)"
             class="st7"
             d="M330.9-14.2h179.8v165.1H330.9z"
             id="path68" />
        </g>
        <ellipse
           transform="rotate(-37.001 420.46 67.88)"
           class="st7"
           cx="420.5"
           cy="67.9"
           rx="63"
           ry="51.8"
           id="ellipse72" />
        <path
           d="M392.4 61.3l10-7 12.3 17.5c2.1 2.8 3.7 5.8 4.9 9.1.7 2.5.5 5.2-.5 7.6-1.3 3-3.4 5.5-6.2 7.3-3.3 2.3-6.1 3.6-8.5 4-2.3.4-4.7 0-6.9-1-2.4-1.2-4.5-2.9-6.1-5.1l8.6-8c.7 1.1 1.6 2.1 2.6 2.9.7.5 1.5.8 2.4.8.7 0 1.4-.3 1.9-.7 1-.6 1.7-1.8 1.6-3-.3-1.7-1-3.4-2.1-4.7l-14-19.7zm30 11.1l9.1-7.2c1 1.2 2.3 2.1 3.7 2.6 2 .6 4.1.2 5.8-1.1 1.2-.8 2.2-1.9 2.6-3.3.6-1.8-.4-3.8-2.2-4.4-.3-.1-.6-.2-.9-.2-1.2-.1-3.3.4-6.4 1.7-5.1 2.1-9.1 2.9-12.1 2.6-2.9-.3-5.6-1.8-7.2-4.3-1.2-1.7-1.8-3.7-1.9-5.7 0-2.3.6-4.6 1.9-6.5 1.9-2.7 4.2-5 7-6.8 4.2-2.9 7.9-4.3 11.1-4.3 3.2 0 6.2 1.5 9 4.6l-9 7.1c-1.8-2.3-5.2-2.8-7.5-1l-.3.3c-1 .6-1.7 1.5-2.1 2.6-.3.8-.1 1.7.4 2.4.4.5 1 .9 1.7.9.8.1 2.2-.3 4.2-1.2 5-2.1 8.8-3.3 11.4-3.7 2.2-.4 4.5-.2 6.6.7 1.9.8 3.5 2.2 4.6 3.9 1.4 2 2.2 4.4 2.3 6.9.1 2.6-.6 5.1-2 7.3-1.8 2.7-4.1 5-6.8 6.8-5.5 3.8-10 5.4-13.6 4.8-3.9-.6-7.1-2.6-9.4-5.5z"
           id="path74" />
      </g>
    </g>
  </g>
  <path
     style="opacity:0.999;fill:#ffffff;fill-rule:evenodd;stroke-width:0.633945"
     d="M 55.57584,83.419471 C 46.152768,65.833289 44.951314,63.999463 41.828542,62.436438 40.324083,61.683417 38.480747,61.17261 36.651325,61.001774 L 33.810397,60.736485 V 78.97069 97.204891 H 20.074923 6.3394494 V 52.828745 8.4525992 l 26.5200296,0.00347 c 32.153667,0.00421 35.458168,0.2839606 42.157339,3.5690038 4.98364,2.443806 8.988621,7.427593 10.884015,13.544041 1.301658,4.200441 1.264192,11.515835 -0.079,15.425994 -1.381916,4.02289 -3.257104,7.088117 -5.974644,9.766296 -2.991497,2.948165 -5.930297,4.650535 -10.781654,6.245541 -2.875367,0.945347 -3.568759,1.312249 -2.923948,1.547185 8.289781,3.020346 11.110768,6.443019 20.85626,25.304669 3.754302,7.266158 6.826002,13.336642 6.826002,13.489959 0,0.153322 -6.894151,0.276392 -15.320336,0.273492 L 63.183179,97.616963 55.57584,83.419466 Z M 47.757185,44.361879 c 5.161411,-0.668923 7.62501,-1.55759 9.352856,-3.373753 3.986673,-4.190446 2.669657,-11.265211 -2.544933,-13.670907 -1.764612,-0.814083 -2.831545,-0.911977 -11.351195,-1.0415 l -9.403516,-0.14296 v 9.051255 c 0,4.97819 0.126789,9.178044 0.281753,9.333008 0.423223,0.423224 10.04527,0.313981 13.665035,-0.155143 z"
     id="path972" />
  <path
     style="opacity:0.999;fill:#ffffff;fill-rule:evenodd;stroke-width:0.633945"
     d="m 428.35487,204.30557 c -19.11078,-2.96992 -30.72774,-14.1897 -34.97002,-33.77438 -0.88184,-4.0711 -0.73811,-19.41436 0.22289,-23.79241 1.7207,-7.83905 4.58688,-13.99974 8.92099,-19.17513 l 2.59536,-3.09913 4.20966,-0.21131 4.20967,-0.21132 -5.71871,-0.29419 c -8.8432,-0.45494 -15.33662,-2.05307 -22.12837,-5.44616 -13.81827,-6.90346 -22.80437,-20.470658 -24.05045,-36.311328 -0.13711,-1.743078 -0.15576,-1.69964 -0.22344,0.520368 -0.0723,2.370159 -0.13397,2.485947 -2.873,5.389461 -4.82361,5.113278 -10.34309,8.017067 -18.75496,9.866943 -5.42356,1.192704 -20.44496,1.265249 -26.62569,0.128577 -5.07395,-0.933125 -10.31905,-2.720105 -13.35883,-4.551285 -3.02647,-1.823162 -7.22284,-6.262539 -9.40333,-9.947877 -1.96843,-3.326926 -4.0887,-9.39773 -4.5134,-12.922853 l -0.29278,-2.430122 h 1.36379 c 1.44564,0 19.68987,-1.139584 22.69621,-1.41767 1.6966,-0.156931 1.78607,-0.106207 2.03705,1.155052 1.24645,6.263718 3.74028,10.01988 8.06653,12.14969 2.42636,1.194487 3.37419,1.416004 6.67461,1.559918 4.51996,0.197094 6.61479,-0.281087 9.40735,-2.147383 5.07752,-3.393367 5.2627,-10.459584 0.36245,-13.831043 -2.6135,-1.798138 -5.21841,-2.723334 -13.64932,-4.847878 -15.45693,-3.895068 -22.16536,-6.992328 -27.5026,-12.697856 -10.89275,-11.644388 -6.42731,-30.052722 9.02573,-37.207606 9.13439,-4.2293003 25.84894,-5.2320068 38.03669,-2.2818228 11.60091,2.8081308 19.3257,11.1208268 21.07894,22.6831878 0.3363,2.217837 1.10645,2.035437 -11.14713,2.640047 -5.23005,0.258058 -10.57749,0.577847 -11.88321,0.710641 l -2.37404,0.241444 -0.28458,-1.51696 c -0.69165,-3.68682 -3.19482,-7.206336 -6.22469,-8.752059 -3.69916,-1.887169 -10.63636,-1.850317 -13.74841,0.07303 -4.29836,2.656536 -4.15165,8.260297 0.27539,10.518807 0.88706,0.452542 6.24373,1.959369 11.90371,3.348505 11.03662,2.708731 17.44196,4.756407 21.881,6.99498 5.75336,2.901376 10.11108,6.927388 12.22524,11.294681 l 0.88179,1.821518 -1.00072,3.243452 c -0.55039,1.7839 -1.1126,4.066009 -1.24935,5.071357 -0.13674,1.005352 0.21393,0.100248 0.77929,-2.011338 4.35547,-16.267686 15.0795,-30.791838 30.23631,-40.950743 16.33878,-10.951118 36.55966,-14.6157328 53.52304,-9.699938 18.3098,5.305973 30.65216,20.206612 32.23573,38.917434 1.48892,17.592428 -6.00338,35.582374 -20.74353,49.807859 -6.17533,5.95971 -11.3494,9.62923 -18.73726,13.28873 -6.7946,3.36563 -10.77275,4.7919 -17.32782,6.21249 -2.6106,0.56576 -3.66735,0.90434 -2.41019,0.77223 5.80992,-0.61055 13.67848,-3.30847 21.58147,-7.39971 l 4.80187,-2.48584 3.51166,0.61238 c 14.78654,2.57856 25.39889,10.47885 30.89523,22.99975 l 1.39992,3.18907 0.0111,-12.78455 0.0111,-12.78456 h 13.73548 13.73547 v 33.8104 33.81039 h 21.55413 21.55413 v 10.77707 10.77706 h -35.2896 -35.28961 l -0.0298,-12.99587 c -0.0258,-11.27321 -0.10376,-12.79495 -0.5879,-11.48012 -4.04103,10.97481 -13.06191,19.62419 -24.21078,23.21375 -2.14956,0.69208 -5.66795,1.54372 -7.81866,1.89253 -4.88266,0.79189 -16.02425,0.7749 -21.2188,-0.0324 z m 18.44261,-21.18219 c 7.5556,-3.53569 10.01406,-8.97723 10.36718,-22.94663 0.23085,-9.13215 -0.26852,-12.39731 -2.6297,-17.19456 -2.32679,-4.72739 -5.92156,-7.5274 -11.28848,-8.79273 -6.58646,-1.55286 -12.63451,-0.0409 -17.30246,4.3254 -4.29758,4.01989 -6.06788,10.1373 -6.02405,20.81663 0.0335,8.1557 0.6858,11.80018 2.92723,16.35409 1.62801,3.30764 3.74197,5.4438 7.0714,7.14567 2.99199,1.52939 4.72349,1.83594 9.64202,1.70707 3.96138,-0.10379 4.77489,-0.26285 7.23686,-1.41494 z m -29.97287,-59.5903 c -0.51981,-0.10032 -1.47073,-0.10292 -2.11315,-0.006 -0.64242,0.0971 -0.21713,0.17922 0.94511,0.18239 1.16223,0.003 1.68785,-0.0763 1.16804,-0.17662 z m 4.74878,-2.67285 c 31.52733,-6.57879 56.13847,-34.387283 56.09497,-63.382555 -0.0174,-11.581992 -2.65694,-18.793615 -10.44152,-28.527523 -6.53111,-8.16656 -17.45651,-13.584444 -30.28116,-15.016355 -10.43145,-1.164704 -23.03265,1.224913 -33.54538,6.361353 -5.48785,2.681322 -20.80217,14.273062 -24.42369,18.486819 -11.13308,12.95372 -17.0811,29.81966 -15.5199,44.007529 0.62751,5.702703 1.72652,9.862667 3.74169,14.162918 6.59727,14.078194 19.25124,22.739614 36.41321,24.924204 3.41235,0.43437 13.83601,-0.15547 17.96178,-1.01639 z M 361.21886,77.877613 c -0.10715,-0.411206 -0.20187,-0.177095 -0.21048,0.520245 -0.009,0.697339 0.079,1.033778 0.19483,0.747645 0.11576,-0.286133 0.12281,-0.856684 0.0157,-1.26789 z m 0.6663,-5.60789 c 0.16057,-2.50737 0.12164,-3.081775 -0.12889,-1.901835 -0.35531,1.673429 -0.54987,6.009807 -0.25441,5.670287 0.0843,-0.09685 0.25677,-1.792657 0.3833,-3.768452 z"
     id="path1011" />
  <path
     style="opacity:0.999;fill:#ffffff;fill-rule:evenodd;stroke-width:0.633945"
     d="m 307.67461,204.38065 c -10.48808,-1.61648 -18.50009,-5.51264 -24.4786,-11.90369 -3.03147,-3.24066 -4.49167,-5.32583 -6.63732,-9.47819 l -1.6379,-3.16972 -0.11224,11.93929 -0.11224,11.9393 h -13.51758 -13.51757 v -18.17309 -18.17309 h -15.426 -15.42599 v 18.17309 18.17309 h -13.52416 -13.52416 v -44.58746 -44.58746 h 13.52416 13.52416 v 15.63731 15.63731 h 15.42599 15.426 v -15.63731 -15.63731 h 13.51757 13.51758 l 0.11224,11.9393 0.11224,11.93929 1.12305,-2.39562 c 8.10003,-17.27839 27.2199,-25.55213 51.49438,-22.28313 12.13937,1.63478 22.55705,7.66386 28.71986,16.62121 8.33459,12.1139 9.98982,34.05117 3.78357,50.14453 -4.5085,11.69094 -14.75283,20.13257 -28.25018,23.27902 -4.68188,1.09142 -18.67825,1.44157 -24.11686,0.60333 z m 16.13743,-20.52601 c 8.40324,-2.5955 11.97854,-9.08623 12.48179,-22.6599 0.4749,-12.80885 -1.85064,-20.00216 -7.85704,-24.30325 -3.2421,-2.32162 -6.0997,-3.10691 -11.253,-3.09241 -5.45494,0.0153 -8.08882,0.98602 -11.66867,4.30033 -4.62956,4.28616 -6.24876,8.98431 -6.58924,19.11894 -0.52602,15.65732 3.67547,24.28717 13.05296,26.81075 3.33996,0.89882 8.60988,0.82112 11.8332,-0.17446 z"
     id="path1050" />
  <path
     style="opacity:0.999;fill:#ffffff;fill-rule:evenodd;stroke-width:0.633945"
     d="m 35.289602,204.94511 c -12.376519,-0.70872 -20.36728,-3.5914 -25.7385778,-9.28527 -3.2197324,-3.41308 -5.7588224,-7.5332 -7.2202537,-11.71614 -1.3255441,-3.794 -2.23191883,-8.837 -1.67697455,-9.33056 0.31527642,-0.2804 21.81445305,-1.81721 24.74240605,-1.76864 0.469804,0.008 0.834089,0.73388 1.209245,2.41025 0.800303,3.57613 1.887814,5.80597 3.892092,7.98035 3.186871,3.45735 8.177756,5.18963 13.408017,4.65377 6.915008,-0.70846 11.251681,-5.07947 10.436023,-10.51865 -0.718586,-4.79189 -4.657387,-7.27923 -15.882253,-10.02961 -14.831799,-3.63417 -22.214001,-6.78777 -27.546139,-11.76739 -5.0750913,-4.73958 -7.1995642,-9.61712 -7.1501688,-16.41596 0.042296,-5.82169 1.7168196,-10.57409 5.2001966,-14.75845 4.4324832,-5.32447 9.5188482,-8.15659 18.0963972,-10.0762 4.953352,-1.10853 19.411701,-1.36357 24.998256,-0.44095 11.728129,1.93688 18.808119,6.50592 22.645282,14.61404 0.869857,1.83804 1.70437,3.34707 1.854471,3.35338 0.150106,0.006 0.86118,-0.90526 1.580163,-2.0257 1.53672,-2.39477 6.582005,-7.36214 9.484691,-9.33822 4.98088,-3.39087 11.950454,-5.87134 19.212575,-6.83774 4.87225,-0.64838 17.47319,-0.25497 21.64446,0.67575 9.93758,2.21733 17.06372,7.06437 22.33517,15.19187 1.8057,2.78403 5.11516,9.63741 5.12923,10.62186 0.005,0.35337 -22.30102,5.67637 -23.76639,5.67149 -0.17433,-5.9e-4 -0.31712,-0.23878 -0.31731,-0.52934 -8.4e-4,-1.41237 -2.59972,-5.77432 -4.48112,-7.52125 -2.63601,-2.44761 -5.16003,-3.65903 -8.62066,-4.13757 -7.98183,-1.10374 -15.11919,2.54255 -18.31914,9.35878 -1.958129,4.171 -2.591245,8.24071 -2.543923,16.35248 0.08244,14.13282 2.532573,20.39611 9.277743,23.71674 2.36507,1.16432 3.30812,1.37582 6.90755,1.54914 8.36482,0.4028 12.82684,-2.16385 16.28271,-9.36615 1.0173,-2.12012 1.98234,-4.52041 2.14454,-5.33398 0.1622,-0.81356 0.41572,-1.68938 0.56338,-1.94627 0.1806,-0.31421 4.05192,0.67978 11.82858,3.03708 6.35807,1.92729 11.66191,3.60594 11.7863,3.73034 0.34027,0.34026 -0.70921,3.85639 -2.25755,7.56358 -3.03132,7.25792 -7.57098,12.89143 -13.51539,16.77198 -4.67241,3.05018 -9.25609,4.62048 -16.18973,5.54633 -4.57402,0.61077 -17.68129,0.22598 -21.9158,-0.64339 -4.303602,-0.88355 -9.832549,-2.85886 -12.686599,-4.53249 -2.409743,-1.41309 -9.129546,-7.72696 -11.127872,-10.45566 l -1.044357,-1.42605 -1.571984,2.54682 c -0.864596,1.40075 -2.990496,3.87155 -4.724221,5.49066 -7.90723,7.38447 -19.374465,10.33775 -36.363065,9.36494 z m 35.484091,-53.53793 c 0.298762,-2.90925 1.592457,-9.38509 2.166689,-10.84578 0.348082,-0.88542 1.129622,-0.88666 -15.77968,0.0251 l -5.177217,0.27916 -3.34e-4,-1.01586 c -4.86e-4,-1.47792 -2.231592,-5.90205 -3.644596,-7.227 -2.338517,-2.19278 -5.019643,-3.065 -9.456599,-3.0764 -3.366848,-0.009 -4.338576,0.14903 -6.019527,0.97686 -2.512962,1.23758 -3.786777,2.99154 -4.003031,5.51192 -0.351474,4.09632 1.844575,5.61996 11.390964,7.90313 15.503363,3.70789 22.921977,6.11943 27.581747,8.9659 1.162232,0.70996 2.233633,1.30544 2.380885,1.32328 0.147257,0.0178 0.399572,-1.2513 0.560699,-2.82032 z"
     id="path1089" />
</svg>
